<?xml version="1.0" encoding="iso-8859-1"?>
<!-- Uploaded to: SVG Repo, www.svgrepo.com, Generator: SVG Repo Mixer Tools -->
<svg fill="#000000" height="800px" width="800px" version="1.1" id="Capa_1" xmlns="http://www.w3.org/2000/svg" xmlns:xlink="http://www.w3.org/1999/xlink" 
	 viewBox="0 0 470 470" xml:space="preserve">
<g>
	<path d="M443.432,343.627C460.813,310.352,470,272.789,470,235c0-62.771-24.444-121.785-68.83-166.17
		C356.784,24.444,297.771,0,235,0C172.229,0,113.215,24.444,68.83,68.83C24.444,113.215,0,172.229,0,235
		c0,37.789,9.187,75.352,26.568,108.627c14.247,27.275,33.993,51.757,57.63,71.583c-19.045,7.29-32.642,25.795-32.642,47.289
		c0,4.142,3.358,7.5,7.5,7.5h351.887c4.143,0,7.5-3.358,7.5-7.5c0-21.494-13.597-39.999-32.642-47.289
		C409.438,395.384,429.186,370.903,443.432,343.627z M99.493,427.007c16.462,11.643,34.126,21.011,52.649,27.993H67.357
		C70.642,439.845,83.658,428.195,99.493,427.007z M235,455c-46.586,0-91.092-14.374-128.719-41.568
		c-0.044-0.033-0.08-0.074-0.125-0.107C49.077,372.009,15,305.346,15,235c0-121.309,98.691-220,220-220s220,98.691,220,220
		c0,70.346-34.077,137.01-91.155,178.325c-2.624,1.899-3.732,5.268-2.748,8.354c0.235,0.738,0.583,1.416,1.012,2.027
		c1.364,1.943,3.599,3.172,6.063,3.195c16.879,0.158,31.026,12.206,34.471,28.1H293.104H235z"/>
	<path d="M280.14,90.436c-15.163,0-27.5,12.336-27.5,27.5s12.337,27.5,27.5,27.5s27.5-12.336,27.5-27.5
		S295.303,90.436,280.14,90.436z M280.14,130.436c-6.893,0-12.5-5.607-12.5-12.5s5.607-12.5,12.5-12.5s12.5,5.607,12.5,12.5
		S287.032,130.436,280.14,130.436z"/>
	<path d="M70.781,230.436c-4.411,0-8,3.589-8,8s3.589,8,8,8s8-3.589,8-8S75.192,230.436,70.781,230.436z"/>
	<path d="M395.281,290.436c0-15.164-12.337-27.5-27.5-27.5s-27.5,12.336-27.5,27.5s12.337,27.5,27.5,27.5
		S395.281,305.6,395.281,290.436z M355.281,290.436c0-6.893,5.607-12.5,12.5-12.5s12.5,5.607,12.5,12.5s-5.607,12.5-12.5,12.5
		S355.281,297.329,355.281,290.436z"/>
	<path d="M360.781,246.436c4.411,0,8-3.589,8-8s-3.589-8-8-8s-8,3.589-8,8S356.37,246.436,360.781,246.436z"/>
	<path d="M400.781,266.436c4.411,0,8-3.589,8-8s-3.589-8-8-8s-8,3.589-8,8S396.37,266.436,400.781,266.436z"/>
	<path d="M150.781,90.436c-4.411,0-8,3.589-8,8s3.589,8,8,8s8-3.589,8-8S155.192,90.436,150.781,90.436z"/>
	<path d="M326.482,88.205c-4.411,0-8,3.589-8,8s3.589,8,8,8s8-3.589,8-8S330.894,88.205,326.482,88.205z"/>
	<path d="M292.717,416.028C274.089,421.981,254.67,425,235,425c-19.67,0-39.089-3.019-57.717-8.972
		c-3.944-1.26-8.166,0.915-9.427,4.861c-1.261,3.945,0.915,8.166,4.861,9.427C192.823,436.742,213.778,440,235,440
		c21.223,0,42.178-3.258,62.283-9.684c3.945-1.261,6.122-5.482,4.86-9.427C300.883,416.942,296.658,414.768,292.717,416.028z"/>
	<path d="M101.751,174.767c-15.164,0-27.5,12.336-27.5,27.5s12.336,27.5,27.5,27.5s27.5-12.336,27.5-27.5
		S116.915,174.767,101.751,174.767z M101.751,214.767c-6.893,0-12.5-5.607-12.5-12.5s5.607-12.5,12.5-12.5s12.5,5.607,12.5,12.5
		S108.644,214.767,101.751,214.767z"/>
	<path d="M253.781,288.436c4.411,0,8-3.589,8-8s-3.589-8-8-8s-8,3.589-8,8S249.37,288.436,253.781,288.436z"/>
</g>
</svg>